<svg id="Layer_1" data-name="Layer 1" xmlns="http://www.w3.org/2000/svg" viewBox="0 0 64 64"><defs><style>.cls-1{fill:#fff;}.cls-2{fill:#231f20;}</style></defs><path class="cls-1" d="M32,20.32c-14.15,0-25.61,14.3-25.61,25.06S17.85,59.29,32,59.29s25.61-3.15,25.61-13.91S46.15,20.32,32,20.32Zm0,37.3c-16.11,0-23.94-4-23.94-12.24,0-4.14,1.82-8.74,4.84-12.75a28.3,28.3,0,0,1,5-5.21A22.68,22.68,0,0,1,32,22a22.68,22.68,0,0,1,14.1,5.43,28.3,28.3,0,0,1,5,5.21c3,4,4.84,8.61,4.84,12.75C55.94,53.62,48.11,57.62,32,57.62Z"/><path class="cls-2" d="M32,61.92c-18.74,0-28.24-5.56-28.24-16.54A24.76,24.76,0,0,1,7.13,33.59a6.61,6.61,0,0,1-3.53-3.1c-1.78-3.51.08-8,4.15-10.14a9.33,9.33,0,0,1,4.22-1,7.25,7.25,0,0,1,5.91,2.79,26.35,26.35,0,0,1,12.35-4.32A6.54,6.54,0,0,1,24.36,11a2.18,2.18,0,0,1,2.11-2.1h.26a6.46,6.46,0,0,1,3.79,1.22,19.3,19.3,0,0,1,.71-3.4,8.27,8.27,0,0,1,2.86-4.37,1.47,1.47,0,0,1,2,.32,1.46,1.46,0,0,1-.25,2,5,5,0,0,0-1.47,2.39,6.49,6.49,0,0,1,3.16-.81h.25a2.18,2.18,0,0,1,2.11,2.11A6.58,6.58,0,0,1,38,13.24a6.44,6.44,0,0,1-4.21,1.9c0,.91.1,1.82.16,2.66a26.48,26.48,0,0,1,12.14,4.3A7.25,7.25,0,0,1,52,19.31a9.33,9.33,0,0,1,4.22,1c4.07,2.08,5.93,6.63,4.15,10.14a6.61,6.61,0,0,1-3.53,3.1,24.73,24.73,0,0,1,3.37,11.79C60.24,56.36,50.74,61.92,32,61.92Zm0-39a21.84,21.84,0,0,0-13.49,5.21,27.14,27.14,0,0,0-4.84,5C10.71,37.14,9,41.57,9,45.38,9,53,16.54,56.66,32,56.66S55,53,55,45.38c0-3.81-1.69-8.24-4.64-12.17a27.53,27.53,0,0,0-4.84-5.05A21.89,21.89,0,0,0,32,23Z"/><path class="cls-1" d="M61.25,30.93c2-4,0-9.11-4.56-11.44A10.44,10.44,0,0,0,52,18.35a8.37,8.37,0,0,0-6.11,2.49,27.46,27.46,0,0,0-11-3.91L34.82,16A7.49,7.49,0,0,0,40.9,8.33a3.17,3.17,0,0,0-3-3h-.3a8.42,8.42,0,0,0-1,.07,2.42,2.42,0,0,0-3-3.77,9.18,9.18,0,0,0-3.2,4.84,17.21,17.21,0,0,0-.53,2.17A7.57,7.57,0,0,0,26.73,8h-.3a3.16,3.16,0,0,0-3,3,7.48,7.48,0,0,0,2.19,5.59,7.77,7.77,0,0,0,.93.79,28.38,28.38,0,0,0-8.45,3.47A8.37,8.37,0,0,0,12,18.35a10.36,10.36,0,0,0-4.65,1.14C2.78,21.82.73,27,2.75,30.92A7.32,7.32,0,0,0,5.8,34a24.83,24.83,0,0,0-3,11.35,14.49,14.49,0,0,0,7.82,13.33c4.84,2.77,12,4.17,21.38,4.17s16.54-1.4,21.38-4.17A14.49,14.49,0,0,0,61.2,45.38,24.83,24.83,0,0,0,58.2,34,7.35,7.35,0,0,0,61.25,30.93ZM55.42,33a24.14,24.14,0,0,1,3.87,12.36C59.29,55.72,50.11,61,32,61S4.71,55.72,4.71,45.38A24.14,24.14,0,0,1,8.58,33a5.76,5.76,0,0,1-4.12-3c-1.55-3,.12-7,3.73-8.85A8.33,8.33,0,0,1,12,20.27a6.08,6.08,0,0,1,5.58,3.11.43.43,0,0,0,0,.07,25.51,25.51,0,0,1,13.65-4.77c0-.62,0-1.23,0-1.85l-.09,0h-.22a5.57,5.57,0,0,1-5.57-5.79,1.24,1.24,0,0,1,1.19-1.19h.22a5.6,5.6,0,0,1,3.94,1.63,5.73,5.73,0,0,1,.63.77c0-.28,0-.57.05-.85A20.35,20.35,0,0,1,32.15,7a7.42,7.42,0,0,1,2.51-3.87A.47.47,0,0,1,35,3a.5.5,0,0,1,.32.89l0,0a6.34,6.34,0,0,0-1.92,3.41,15,15,0,0,0-.4,2.34,5.54,5.54,0,0,1,4.63-2.49h.22A1.23,1.23,0,0,1,39,8.4a5.59,5.59,0,0,1-5.57,5.8h-.22a1.17,1.17,0,0,1-.37-.08c0,1.52.15,3.05.27,4.59a25.67,25.67,0,0,1,13.32,4.75.43.43,0,0,0,0-.07A6.08,6.08,0,0,1,52,20.27a8.33,8.33,0,0,1,3.78.93c3.61,1.85,5.28,5.81,3.73,8.85A5.76,5.76,0,0,1,55.42,33Z"/><path class="cls-1" d="M55.94,45.38c0,8.24-7.83,12.24-23.94,12.24s-23.94-4-23.94-12.24c0-4.14,1.82-8.74,4.84-12.75a28.3,28.3,0,0,1,5-5.21A22.68,22.68,0,0,1,32,22a22.68,22.68,0,0,1,14.1,5.43,28.3,28.3,0,0,1,5,5.21C54.12,36.64,55.94,41.24,55.94,45.38Z"/><path class="cls-2" d="M52.25,42.06c.32,2.67-.1,6.82-3.39,6.82s-7-2.54-7.77-5.91c-.66-3,.74-7.73,4.42-7.73s6.07,2.93,6.65,6.25Q52.21,41.76,52.25,42.06Z"/><path class="cls-2" d="M11.75,42.06c-.32,2.67.1,6.82,3.39,6.82s7-2.54,7.77-5.91c.66-3-.74-7.73-4.42-7.73s-6.07,2.93-6.65,6.25Q11.8,41.76,11.75,42.06Z"/><path class="cls-2" d="M36,43.28c.3-1-8.6-1-8,0l3,3c.11.1.41,3.75.41,3.75,0,.19.25.35.56.35s.56-.16.56-.35c0,0,.32-3.65.42-3.75Z"/></svg>